<svg width="43" height="21" viewBox="0 0 43 21" fill="none" xmlns="http://www.w3.org/2000/svg">
<g clip-path="url(#clip0_1806_222)">
<path d="M9.20915 6.81793C9.61869 6.68215 10.0555 6.60973 10.5087 6.60973C12.4927 6.60973 14.1491 8.01102 14.5277 9.87397L17.3398 9.30368C16.6955 6.13902 13.8815 3.75647 10.5087 3.75647C9.73518 3.75647 8.99437 3.88139 8.29907 4.11313L9.20915 6.81793Z" fill="#FFCB05"/>
<path d="M5.89095 15.881L7.79302 13.7429C6.94482 12.9952 6.4097 11.9035 6.4097 10.6869C6.4097 9.47206 6.94482 8.38036 7.79302 7.63445L5.89095 5.49451C4.44939 6.76544 3.53931 8.62115 3.53931 10.6869C3.53931 12.7544 4.44939 14.6101 5.89095 15.881" fill="#00A4E0"/>
<path d="M14.5277 11.5052C14.1472 13.3664 12.4927 14.7659 10.5106 14.7659C10.0555 14.7659 9.61687 14.6934 9.20915 14.5559L8.29907 17.2643C8.99437 17.4942 9.737 17.6191 10.5106 17.6191C13.8797 17.6191 16.6918 15.2402 17.3398 12.0792L14.5277 11.5052Z" fill="#EF4123"/>
<path d="M19.7987 13.8316C19.7058 13.6831 19.5821 13.4459 19.5056 13.2703C19.0597 12.242 19.0397 11.1775 19.4146 10.1564C19.8278 9.03569 20.6177 8.17935 21.6388 7.74122C22.9221 7.19266 24.34 7.29948 25.5704 8.02546C26.3512 8.47083 26.9046 9.1588 27.325 10.1328C27.3778 10.2577 27.4251 10.3899 27.4725 10.504L19.7987 13.8316ZM22.3615 9.39416C21.4496 9.78341 20.98 10.6343 21.0782 11.6301L24.937 9.97713C24.2726 9.20226 23.4099 8.94517 22.3615 9.39416V9.39416ZM25.4175 12.9897C25.4157 12.9897 25.4157 12.9915 25.4157 12.9915L25.3356 12.9372C25.1044 13.3083 24.7459 13.6107 24.2926 13.8062C23.4299 14.1792 22.6308 14.0832 22.0557 13.5817L22.0029 13.6614C22.0029 13.6614 22.0029 13.6596 22.0011 13.6596L21.0218 15.117C21.2657 15.2854 21.526 15.4266 21.799 15.5406C22.8802 15.9878 23.9869 15.9661 25.0771 15.4954C25.8653 15.155 26.4841 14.6372 26.9064 13.98L25.4175 12.9897ZM30.1535 5.59766V13.6976L31.4204 14.2081L30.7014 15.8774L29.3035 15.298C28.9905 15.1622 28.7757 14.9559 28.6155 14.7223C28.4608 14.4851 28.3461 14.1574 28.3461 13.7193V5.59766H30.1535ZM33.4335 11.6355C33.4335 10.9457 33.7411 10.3265 34.2252 9.90652L32.9256 8.4654C32.0447 9.24027 31.4895 10.3718 31.4895 11.6319C31.4877 12.8938 32.0429 14.0271 32.922 14.802L34.2198 13.3609C33.7374 12.939 33.4335 12.3235 33.4335 11.6355V11.6355ZM35.7414 13.933C35.4866 13.933 35.2391 13.8895 35.0097 13.8135L34.3891 15.6474C34.8132 15.7887 35.2664 15.8665 35.7396 15.8665C37.7964 15.8683 39.5128 14.4163 39.9114 12.4882L38.0039 12.1008C37.7873 13.149 36.8572 13.9348 35.7414 13.933V13.933ZM35.7469 7.40448C35.2755 7.40448 34.8223 7.48052 34.3982 7.61993L35.0134 9.45572C35.2445 9.37968 35.4902 9.33804 35.7451 9.33804C36.8626 9.33985 37.7946 10.1292 38.0057 11.1793L39.9132 10.7954C39.5219 8.8637 37.8055 7.40629 35.7469 7.40448V7.40448Z" fill="white"/>
</g>
<defs>
<clipPath id="clip0_1806_222">
<rect width="42.5641" height="20" fill="white" transform="translate(0.436035 0.691406)"/>
</clipPath>
</defs>
</svg>
